<svg version="1.1" viewBox="0.0 0.0 960.0 540.0" fill="none" stroke="none" stroke-linecap="square" stroke-miterlimit="10" xmlns:xlink="http://www.w3.org/1999/xlink" xmlns="http://www.w3.org/2000/svg"><clipPath id="p.0"><path d="m0 0l960.0 0l0 540.0l-960.0 0l0 -540.0z" clip-rule="nonzero"/></clipPath><g clip-path="url(#p.0)"><path fill="#fff2cc" d="m0 0l960.0 0l0 540.0l-960.0 0z" fill-rule="evenodd"/><path fill="#000000" fill-opacity="0.0" d="m134.40945 132.47769l618.3622 0l0 56.566925l-618.3622 0z" fill-rule="evenodd"/><path fill="#000000" d="m154.83133 170.9177l-2.6875 0l0 -17.171875q-0.984375 0.9375 -2.5625 1.859375q-1.578125 0.921875 -2.828125 1.390625l0 -2.609375q2.25 -1.0625 3.9375 -2.5625q1.703125 -1.515625 2.40625 -2.9375l1.734375 0l0 22.03125zm8.40892 0l0 -3.0625l3.078125 0l0 3.0625l-3.078125 0zm16.612701 0l0 -21.9375l7.5625 0q2.5625 0 3.90625 0.3125q1.890625 0.421875 3.21875 1.5625q1.734375 1.46875 2.59375 3.75q0.859375 2.28125 0.859375 5.21875q0 2.5 -0.578125 4.4375q-0.578125 1.921875 -1.5 3.1875q-0.90625 1.265625 -2.0 2.0q-1.078125 0.71875 -2.609375 1.09375q-1.53125 0.375 -3.53125 0.375l-7.921875 0zm2.90625 -2.59375l4.6875 0q2.171875 0 3.40625 -0.390625q1.234375 -0.40625 1.96875 -1.140625q1.03125 -1.046875 1.609375 -2.78125q0.578125 -1.75 0.578125 -4.234375q0 -3.4375 -1.140625 -5.28125q-1.125 -1.859375 -2.734375 -2.484375q-1.171875 -0.453125 -3.765625 -0.453125l-4.609375 0l0 16.765625zm18.857712 2.59375l0 -15.890625l2.4375 0l0 2.40625q0.921875 -1.6875 1.703125 -2.21875q0.796875 -0.546875 1.734375 -0.546875q1.359375 0 2.765625 0.859375l-0.921875 2.5q-0.984375 -0.578125 -1.984375 -0.578125q-0.875 0 -1.578125 0.53125q-0.703125 0.53125 -1.0 1.46875q-0.453125 1.4375 -0.453125 3.140625l0 8.328125l-2.703125 0zm20.61502 -1.953125q-1.5 1.265625 -2.890625 1.796875q-1.375 0.515625 -2.953125 0.515625q-2.625 0 -4.03125 -1.28125q-1.40625 -1.28125 -1.40625 -3.265625q0 -1.171875 0.53125 -2.140625q0.53125 -0.96875 1.390625 -1.546875q0.859375 -0.578125 1.9375 -0.875q0.796875 -0.21875 2.390625 -0.40625q3.265625 -0.390625 4.8125 -0.9375q0.015625 -0.546875 0.015625 -0.703125q0 -1.640625 -0.765625 -2.3125q-1.03125 -0.921875 -3.0625 -0.921875q-1.90625 0 -2.8125 0.671875q-0.90625 0.671875 -1.34375 2.359375l-2.625 -0.359375q0.359375 -1.6875 1.171875 -2.734375q0.828125 -1.046875 2.375 -1.59375q1.5625 -0.5625 3.609375 -0.5625q2.046875 0 3.3125 0.484375q1.28125 0.46875 1.875 1.203125q0.59375 0.71875 0.84375 1.828125q0.125 0.6875 0.125 2.484375l0 3.59375q0 3.75 0.171875 4.75q0.171875 1.0 0.6875 1.90625l-2.8125 0q-0.421875 -0.84375 -0.546875 -1.953125zm-0.21875 -6.03125q-1.46875 0.609375 -4.40625 1.03125q-1.65625 0.234375 -2.34375 0.53125q-0.6875 0.296875 -1.0625 0.875q-0.375 0.578125 -0.375 1.28125q0 1.078125 0.8125 1.796875q0.8125 0.71875 2.390625 0.71875q1.546875 0 2.765625 -0.671875q1.21875 -0.6875 1.78125 -1.875q0.4375 -0.90625 0.4375 -2.6875l0 -1.0zm9.830795 7.984375l-4.859375 -15.890625l2.78125 0l2.53125 9.171875l0.9375 3.40625q0.0625 -0.25 0.828125 -3.28125l2.53125 -9.296875l2.765625 0l2.375 9.21875l0.796875 3.03125l0.921875 -3.0625l2.71875 -9.1875l2.625 0l-4.96875 15.890625l-2.8125 0l-2.53125 -9.515625l-0.609375 -2.71875l-3.21875 12.234375l-2.8125 0zm33.60936 -2.40625l0.390625 2.375q-1.140625 0.234375 -2.046875 0.234375q-1.453125 0 -2.265625 -0.453125q-0.8125 -0.46875 -1.140625 -1.21875q-0.328125 -0.765625 -0.328125 -3.1875l0 -9.140625l-1.984375 0l0 -2.09375l1.984375 0l0 -3.9375l2.671875 -1.625l0 5.5625l2.71875 0l0 2.09375l-2.71875 0l0 9.296875q0 1.140625 0.140625 1.484375q0.15625 0.328125 0.46875 0.515625q0.328125 0.1875 0.921875 0.1875q0.453125 0 1.1875 -0.09375zm2.6266785 2.40625l0 -21.9375l2.703125 0l0 7.859375q1.875 -2.171875 4.75 -2.171875q1.765625 0 3.0625 0.703125q1.3125 0.6875 1.875 1.921875q0.5625 1.21875 0.5625 3.546875l0 10.078125l-2.6875 0l0 -10.078125q0 -2.015625 -0.890625 -2.9375q-0.875 -0.921875 -2.46875 -0.921875q-1.203125 0 -2.265625 0.625q-1.046875 0.625 -1.5 1.6875q-0.4375 1.0625 -0.4375 2.921875l0 8.703125l-2.703125 0zm27.940155 -5.125l2.78125 0.34375q-0.65625 2.453125 -2.4375 3.796875q-1.78125 1.34375 -4.546875 1.34375q-3.5 0 -5.546875 -2.140625q-2.03125 -2.15625 -2.03125 -6.03125q0 -4.015625 2.0625 -6.21875q2.0625 -2.21875 5.359375 -2.21875q3.1875 0 5.203125 2.171875q2.03125 2.15625 2.03125 6.09375q0 0.25 -0.015625 0.71875l-11.859375 0q0.15625 2.625 1.484375 4.015625q1.328125 1.390625 3.328125 1.390625q1.46875 0 2.515625 -0.765625q1.0625 -0.78125 1.671875 -2.5zm-8.84375 -4.34375l8.875 0q-0.1875 -2.015625 -1.015625 -3.015625q-1.296875 -1.5625 -3.34375 -1.5625q-1.859375 0 -3.125 1.25q-1.265625 1.234375 -1.390625 3.328125zm30.144958 9.46875l-8.5 -21.9375l3.140625 0l5.703125 15.9375q0.6875 1.90625 1.15625 3.59375q0.5 -1.796875 1.171875 -3.59375l5.9375 -15.9375l2.953125 0l-8.59375 21.9375l-2.96875 0zm23.021057 -5.125l2.78125 0.34375q-0.65625 2.453125 -2.4375 3.796875q-1.78125 1.34375 -4.546875 1.34375q-3.5 0 -5.546875 -2.140625q-2.03125 -2.15625 -2.03125 -6.03125q0 -4.015625 2.0625 -6.21875q2.0625 -2.21875 5.359375 -2.21875q3.1875 0 5.203125 2.171875q2.03125 2.15625 2.03125 6.09375q0 0.25 -0.015625 0.71875l-11.859375 0q0.15625 2.625 1.484375 4.015625q1.328125 1.390625 3.328125 1.390625q1.46875 0 2.515625 -0.765625q1.0625 -0.78125 1.671875 -2.5zm-8.84375 -4.34375l8.875 0q-0.1875 -2.015625 -1.015625 -3.015625q-1.296875 -1.5625 -3.34375 -1.5625q-1.859375 0 -3.125 1.25q-1.265625 1.234375 -1.390625 3.328125zm15.002655 9.46875l0 -15.890625l2.4375 0l0 2.25q1.75 -2.609375 5.046875 -2.609375q1.4375 0 2.640625 0.515625q1.21875 0.515625 1.8125 1.359375q0.59375 0.828125 0.84375 1.984375q0.140625 0.75 0.140625 2.609375l0 9.78125l-2.6875 0l0 -9.671875q0 -1.640625 -0.328125 -2.453125q-0.3125 -0.828125 -1.109375 -1.3125q-0.796875 -0.484375 -1.875 -0.484375q-1.71875 0 -2.96875 1.09375q-1.25 1.09375 -1.25 4.140625l0 8.6875l-2.703125 0zm17.04956 0l0 -15.890625l2.4375 0l0 2.25q1.75 -2.609375 5.046875 -2.609375q1.4375 0 2.640625 0.515625q1.21875 0.515625 1.8125 1.359375q0.59375 0.828125 0.84375 1.984375q0.140625 0.75 0.140625 2.609375l0 9.78125l-2.6875 0l0 -9.671875q0 -1.640625 -0.328125 -2.453125q-0.3125 -0.828125 -1.109375 -1.3125q-0.796875 -0.484375 -1.875 -0.484375q-1.71875 0 -2.96875 1.09375q-1.25 1.09375 -1.25 4.140625l0 8.6875l-2.703125 0zm35.879333 0l0 -2.0q-1.5 2.359375 -4.4375 2.359375q-1.90625 0 -3.5 -1.046875q-1.59375 -1.046875 -2.46875 -2.921875q-0.875 -1.890625 -0.875 -4.328125q0 -2.375 0.796875 -4.3125q0.796875 -1.9375 2.375 -2.96875q1.59375 -1.03125 3.546875 -1.03125q1.4375 0 2.5625 0.609375q1.125 0.59375 1.828125 1.5625l0 -7.859375l2.671875 0l0 21.9375l-2.5 0zm-8.515625 -7.9375q0 3.0625 1.28125 4.578125q1.296875 1.5 3.046875 1.5q1.765625 0 3.0 -1.4375q1.234375 -1.453125 1.234375 -4.40625q0 -3.265625 -1.265625 -4.796875q-1.25 -1.53125 -3.09375 -1.53125q-1.78125 0 -3.0 1.46875q-1.203125 1.46875 -1.203125 4.625zm15.26828 -10.90625l0 -3.09375l2.703125 0l0 3.09375l-2.703125 0zm0 18.84375l0 -15.890625l2.703125 0l0 15.890625l-2.703125 0zm17.170227 -1.953125q-1.5 1.265625 -2.890625 1.796875q-1.375 0.515625 -2.953125 0.515625q-2.625 0 -4.03125 -1.28125q-1.40625 -1.28125 -1.40625 -3.265625q0 -1.171875 0.53125 -2.140625q0.53125 -0.96875 1.390625 -1.546875q0.859375 -0.578125 1.9375 -0.875q0.796875 -0.21875 2.390625 -0.40625q3.265625 -0.390625 4.8125 -0.9375q0.015625 -0.546875 0.015625 -0.703125q0 -1.640625 -0.765625 -2.3125q-1.03125 -0.921875 -3.0625 -0.921875q-1.90625 0 -2.8125 0.671875q-0.90625 0.671875 -1.34375 2.359375l-2.625 -0.359375q0.359375 -1.6875 1.171875 -2.734375q0.828125 -1.046875 2.375 -1.59375q1.5625 -0.5625 3.609375 -0.5625q2.046875 0 3.3125 0.484375q1.28125 0.46875 1.875 1.203125q0.59375 0.71875 0.84375 1.828125q0.125 0.6875 0.125 2.484375l0 3.59375q0 3.75 0.171875 4.75q0.171875 1.0 0.6875 1.90625l-2.8125 0q-0.421875 -0.84375 -0.546875 -1.953125zm-0.21875 -6.03125q-1.46875 0.609375 -4.40625 1.03125q-1.65625 0.234375 -2.34375 0.53125q-0.6875 0.296875 -1.0625 0.875q-0.375 0.578125 -0.375 1.28125q0 1.078125 0.8125 1.796875q0.8125 0.71875 2.390625 0.71875q1.546875 0 2.765625 -0.671875q1.21875 -0.6875 1.78125 -1.875q0.4375 -0.90625 0.4375 -2.6875l0 -1.0zm6.4089355 9.296875l2.609375 0.390625q0.171875 1.21875 0.921875 1.765625q1.0 0.75 2.734375 0.75q1.875 0 2.890625 -0.75q1.015625 -0.75 1.375 -2.09375q0.21875 -0.828125 0.203125 -3.453125q-1.765625 2.078125 -4.40625 2.078125q-3.28125 0 -5.078125 -2.359375q-1.796875 -2.375 -1.796875 -5.671875q0 -2.28125 0.828125 -4.203125q0.828125 -1.921875 2.390625 -2.96875q1.5625 -1.046875 3.671875 -1.046875q2.8125 0 4.640625 2.265625l0 -1.90625l2.484375 0l0 13.734375q0 3.71875 -0.765625 5.265625q-0.75 1.546875 -2.390625 2.4375q-1.640625 0.90625 -4.03125 0.90625q-2.84375 0 -4.59375 -1.28125q-1.75 -1.28125 -1.6875 -3.859375zm2.21875 -9.546875q0 3.125 1.234375 4.5625q1.25 1.4375 3.125 1.4375q1.859375 0 3.109375 -1.421875q1.265625 -1.4375 1.265625 -4.484375q0 -2.921875 -1.296875 -4.40625q-1.296875 -1.484375 -3.125 -1.484375q-1.796875 0 -3.0625 1.46875q-1.25 1.453125 -1.25 4.328125zm15.283936 8.234375l0 -15.890625l2.4375 0l0 2.40625q0.921875 -1.6875 1.703125 -2.21875q0.796875 -0.546875 1.734375 -0.546875q1.359375 0 2.765625 0.859375l-0.921875 2.5q-0.984375 -0.578125 -1.984375 -0.578125q-0.875 0 -1.578125 0.53125q-0.703125 0.53125 -1.0 1.46875q-0.453125 1.4375 -0.453125 3.140625l0 8.328125l-2.703125 0zm20.61502 -1.953125q-1.5 1.265625 -2.890625 1.796875q-1.375 0.515625 -2.953125 0.515625q-2.625 0 -4.03125 -1.28125q-1.40625 -1.28125 -1.40625 -3.265625q0 -1.171875 0.53125 -2.140625q0.53125 -0.96875 1.390625 -1.546875q0.859375 -0.578125 1.9375 -0.875q0.796875 -0.21875 2.390625 -0.40625q3.265625 -0.390625 4.8125 -0.9375q0.015625 -0.546875 0.015625 -0.703125q0 -1.640625 -0.765625 -2.3125q-1.03125 -0.921875 -3.0625 -0.921875q-1.90625 0 -2.8125 0.671875q-0.90625 0.671875 -1.34375 2.359375l-2.625 -0.359375q0.359375 -1.6875 1.171875 -2.734375q0.828125 -1.046875 2.375 -1.59375q1.5625 -0.5625 3.609375 -0.5625q2.046875 0 3.3125 0.484375q1.28125 0.46875 1.875 1.203125q0.59375 0.71875 0.84375 1.828125q0.125 0.6875 0.125 2.484375l0 3.59375q0 3.75 0.171875 4.75q0.171875 1.0 0.6875 1.90625l-2.8125 0q-0.421875 -0.84375 -0.546875 -1.953125zm-0.21875 -6.03125q-1.46875 0.609375 -4.40625 1.03125q-1.65625 0.234375 -2.34375 0.53125q-0.6875 0.296875 -1.0625 0.875q-0.375 0.578125 -0.375 1.28125q0 1.078125 0.8125 1.796875q0.8125 0.71875 2.390625 0.71875q1.546875 0 2.765625 -0.671875q1.21875 -0.6875 1.78125 -1.875q0.4375 -0.90625 0.4375 -2.6875l0 -1.0zm6.89328 7.984375l0 -15.890625l2.421875 0l0 2.21875q0.734375 -1.15625 1.984375 -1.859375q1.25 -0.71875 2.828125 -0.71875q1.765625 0 2.890625 0.734375q1.140625 0.71875 1.59375 2.046875q1.890625 -2.78125 4.921875 -2.78125q2.359375 0 3.625 1.3125q1.28125 1.296875 1.28125 4.03125l0 10.90625l-2.6875 0l0 -10.015625q0 -1.609375 -0.265625 -2.3125q-0.25 -0.71875 -0.9375 -1.15625q-0.6875 -0.4375 -1.625 -0.4375q-1.671875 0 -2.78125 1.125q-1.109375 1.109375 -1.109375 3.5625l0 9.234375l-2.6875 0l0 -10.328125q0 -1.796875 -0.65625 -2.6875q-0.65625 -0.90625 -2.15625 -0.90625q-1.140625 0 -2.109375 0.609375q-0.96875 0.59375 -1.40625 1.75q-0.421875 1.140625 -0.421875 3.3125l0 8.25l-2.703125 0zm33.0542 -7.953125q0 -4.40625 2.453125 -6.53125q2.0625 -1.765625 4.9999695 -1.765625q3.28125 0 5.359375 2.15625q2.078125 2.140625 2.078125 5.921875q0 3.0625 -0.921875 4.828125q-0.90625 1.75 -2.671875 2.734375q-1.765625 0.96875 -3.84375 0.96875q-3.3280945 0 -5.3905945 -2.140625q-2.0625 -2.140625 -2.0625 -6.171875zm2.765625 0q0 3.0625 1.328125 4.578125q1.3437195 1.515625 3.3593445 1.515625q2.015625 0 3.34375 -1.515625q1.328125 -1.53125 1.328125 -4.65625q0 -2.953125 -1.34375 -4.46875q-1.328125 -1.53125 -3.328125 -1.53125q-2.015625 0 -3.3593445 1.515625q-1.328125 1.515625 -1.328125 4.5625zm15.940155 7.953125l0 -13.796875l-2.390625 0l0 -2.09375l2.390625 0l0 -1.703125q0 -1.59375 0.28125 -2.375q0.390625 -1.046875 1.359375 -1.6875q0.984375 -0.65625 2.75 -0.65625q1.140625 0 2.515625 0.265625l-0.40625 2.34375q-0.828125 -0.140625 -1.578125 -0.140625q-1.234375 0 -1.75 0.53125q-0.5 0.515625 -0.5 1.953125l0 1.46875l3.09375 0l0 2.09375l-3.09375 0l0 13.796875l-2.671875 0zm15.737671 -7.046875l2.734375 -0.25q0.203125 1.65625 0.90625 2.71875q0.71875 1.046875 2.21875 1.703125q1.5 0.640625 3.359375 0.640625q1.671875 0 2.9375 -0.484375q1.265625 -0.5 1.890625 -1.359375q0.625 -0.859375 0.625 -1.875q0 -1.03125 -0.609375 -1.796875q-0.59375 -0.78125 -1.96875 -1.3125q-0.875 -0.34375 -3.90625 -1.0625q-3.015625 -0.734375 -4.234375 -1.375q-1.578125 -0.8125 -2.34375 -2.03125q-0.765625 -1.234375 -0.765625 -2.734375q0 -1.671875 0.9375 -3.109375q0.9375 -1.453125 2.75 -2.1875q1.8125 -0.75 4.03125 -0.75q2.4375 0 4.296875 0.78125q1.875 0.78125 2.875 2.3125q1.0 1.53125 1.078125 3.453125l-2.78125 0.21875q-0.234375 -2.09375 -1.53125 -3.15625q-1.28125 -1.0625 -3.8125 -1.0625q-2.640625 0 -3.84375 0.96875q-1.203125 0.96875 -1.203125 2.328125q0 1.1875 0.859375 1.953125q0.828125 0.765625 4.359375 1.5625q3.546875 0.796875 4.875 1.390625q1.90625 0.890625 2.8125 2.25q0.921875 1.34375 0.921875 3.109375q0 1.75 -1.0 3.3125q-1.0 1.546875 -2.890625 2.40625q-1.875 0.859375 -4.21875 0.859375q-2.984375 0 -5.0 -0.859375q-2.0 -0.875 -3.15625 -2.609375q-1.140625 -1.75 -1.203125 -3.953125z" fill-rule="nonzero"/><path fill="#000000" d="m571.18695 180.69894l0 1.71875l-9.65625 0q-0.03125 -0.65625 0.203125 -1.25q0.375 -0.984375 1.1875 -1.9375q0.8125 -0.96875 2.34375 -2.21875q2.390625 -1.953125 3.21875 -3.09375q0.84375 -1.15625 0.84375 -2.171875q0 -1.0625 -0.765625 -1.796875q-0.765625 -0.734375 -1.984375 -0.734375q-1.296875 0 -2.078125 0.78125q-0.78125 0.78125 -0.796875 2.15625l-1.84375 -0.1875q0.1875 -2.078125 1.421875 -3.15625q1.25 -1.078125 3.328125 -1.078125q2.109375 0 3.328125 1.171875q1.234375 1.15625 1.234375 2.890625q0 0.875 -0.359375 1.734375q-0.359375 0.84375 -1.1875 1.78125q-0.828125 0.9375 -2.765625 2.5625q-1.625 1.359375 -2.09375 1.84375q-0.453125 0.484375 -0.75 0.984375l7.171875 0z" fill-rule="nonzero"/><path fill="#000000" d="m574.9908 170.9177l0 -3.0625l3.078125 0l0 3.0625q0 1.6875 -0.609375 2.71875q-0.59375 1.046875 -1.890625 1.625l-0.75 -1.15625q0.84375 -0.375 1.25 -1.109375q0.40625 -0.71875 0.453125 -2.078125l-1.53125 0zm15.690857 -7.046875l2.734375 -0.25q0.203125 1.65625 0.90625 2.71875q0.71875 1.046875 2.21875 1.703125q1.5 0.640625 3.359375 0.640625q1.671875 0 2.9375 -0.484375q1.265625 -0.5 1.890625 -1.359375q0.625 -0.859375 0.625 -1.875q0 -1.03125 -0.609375 -1.796875q-0.59375 -0.78125 -1.96875 -1.3125q-0.875 -0.34375 -3.90625 -1.0625q-3.015625 -0.734375 -4.234375 -1.375q-1.578125 -0.8125 -2.34375 -2.03125q-0.765625 -1.234375 -0.765625 -2.734375q0 -1.671875 0.9375 -3.109375q0.9375 -1.453125 2.75 -2.1875q1.8125 -0.75 4.03125 -0.75q2.4375 0 4.296875 0.78125q1.875 0.78125 2.875 2.3125q1.0 1.53125 1.078125 3.453125l-2.78125 0.21875q-0.234375 -2.09375 -1.53125 -3.15625q-1.28125 -1.0625 -3.8125 -1.0625q-2.640625 0 -3.84375 0.96875q-1.203125 0.96875 -1.203125 2.328125q0 1.1875 0.859375 1.953125q0.828125 0.765625 4.359375 1.5625q3.546875 0.796875 4.875 1.390625q1.90625 0.890625 2.8125 2.25q0.921875 1.34375 0.921875 3.109375q0 1.75 -1.0 3.3125q-1.0 1.546875 -2.890625 2.40625q-1.875 0.859375 -4.21875 0.859375q-2.984375 0 -5.0 -0.859375q-2.0 -0.875 -3.15625 -2.609375q-1.140625 -1.75 -1.203125 -3.953125z" fill-rule="nonzero"/><path fill="#000000" d="m616.36346 182.4177l0 -3.5l-6.34375 0l0 -1.65625l6.671875 -9.46875l1.46875 0l0 9.46875l1.96875 0l0 1.65625l-1.96875 0l0 3.5l-1.796875 0zm0 -5.15625l0 -6.59375l-4.578125 6.59375l4.578125 0z" fill-rule="nonzero"/><path fill="#000000" d="m642.0284 168.96457q-1.5 1.265625 -2.890625 1.796875q-1.375 0.515625 -2.953125 0.515625q-2.625 0 -4.03125 -1.28125q-1.40625 -1.28125 -1.40625 -3.265625q0 -1.171875 0.53125 -2.140625q0.53125 -0.96875 1.390625 -1.546875q0.859375 -0.578125 1.9375 -0.875q0.796875 -0.21875 2.390625 -0.40625q3.265625 -0.390625 4.8125 -0.9375q0.015625 -0.546875 0.015625 -0.703125q0 -1.640625 -0.765625 -2.3125q-1.03125 -0.921875 -3.0625 -0.921875q-1.90625 0 -2.8125 0.671875q-0.90625 0.671875 -1.34375 2.359375l-2.625 -0.359375q0.359375 -1.6875 1.171875 -2.734375q0.828125 -1.046875 2.375 -1.59375q1.5625 -0.5625 3.609375 -0.5625q2.046875 0 3.3125 0.484375q1.28125 0.46875 1.875 1.203125q0.59375 0.71875 0.84375 1.828125q0.125 0.6875 0.125 2.484375l0 3.59375q0 3.75 0.171875 4.75q0.171875 1.0 0.6875 1.90625l-2.8125 0q-0.421875 -0.84375 -0.546875 -1.953125zm-0.21875 -6.03125q-1.46875 0.609375 -4.40625 1.03125q-1.65625 0.234375 -2.34375 0.53125q-0.6875 0.296875 -1.0625 0.875q-0.375 0.578125 -0.375 1.28125q0 1.078125 0.8125 1.796875q0.8125 0.71875 2.390625 0.71875q1.546875 0 2.765625 -0.671875q1.21875 -0.6875 1.78125 -1.875q0.4375 -0.90625 0.4375 -2.6875l0 -1.0zm6.8932495 7.984375l0 -15.890625l2.4375 0l0 2.25q1.75 -2.609375 5.046875 -2.609375q1.4375 0 2.640625 0.515625q1.21875 0.515625 1.8125 1.359375q0.59375 0.828125 0.84375 1.984375q0.140625 0.75 0.140625 2.609375l0 9.78125l-2.6875 0l0 -9.671875q0 -1.640625 -0.328125 -2.453125q-0.3125 -0.828125 -1.109375 -1.3125q-0.796875 -0.484375 -1.875 -0.484375q-1.71875 0 -2.96875 1.09375q-1.25 1.09375 -1.25 4.140625l0 8.6875l-2.703125 0zm27.36206 0l0 -2.0q-1.5 2.359375 -4.4375 2.359375q-1.90625 0 -3.5 -1.046875q-1.59375 -1.046875 -2.46875 -2.921875q-0.875 -1.890625 -0.875 -4.328125q0 -2.375 0.796875 -4.3125q0.796875 -1.9375 2.375 -2.96875q1.59375 -1.03125 3.546875 -1.03125q1.4375 0 2.5625 0.609375q1.125 0.59375 1.828125 1.5625l0 -7.859375l2.671875 0l0 21.9375l-2.5 0zm-8.515625 -7.9375q0 3.0625 1.28125 4.578125q1.296875 1.5 3.046875 1.5q1.765625 0 3.0 -1.4375q1.234375 -1.453125 1.234375 -4.40625q0 -3.265625 -1.265625 -4.796875q-1.25 -1.53125 -3.09375 -1.53125q-1.78125 0 -3.0 1.46875q-1.203125 1.46875 -1.203125 4.625zm23.129333 0.890625l2.734375 -0.25q0.203125 1.65625 0.90625 2.71875q0.71875 1.046875 2.21875 1.703125q1.5 0.640625 3.359375 0.640625q1.671875 0 2.9375 -0.484375q1.265625 -0.5 1.890625 -1.359375q0.625 -0.859375 0.625 -1.875q0 -1.03125 -0.609375 -1.796875q-0.59375 -0.78125 -1.96875 -1.3125q-0.875 -0.34375 -3.90625 -1.0625q-3.015625 -0.734375 -4.234375 -1.375q-1.578125 -0.8125 -2.34375 -2.03125q-0.765625 -1.234375 -0.765625 -2.734375q0 -1.671875 0.9375 -3.109375q0.9375 -1.453125 2.75 -2.1875q1.8125 -0.75 4.03125 -0.75q2.4375 0 4.296875 0.78125q1.875 0.78125 2.875 2.3125q1.0 1.53125 1.078125 3.453125l-2.78125 0.21875q-0.234375 -2.09375 -1.53125 -3.15625q-1.28125 -1.0625 -3.8125 -1.0625q-2.640625 0 -3.84375 0.96875q-1.203125 0.96875 -1.203125 2.328125q0 1.1875 0.859375 1.953125q0.828125 0.765625 4.359375 1.5625q3.546875 0.796875 4.875 1.390625q1.90625 0.890625 2.8125 2.25q0.921875 1.34375 0.921875 3.109375q0 1.75 -1.0 3.3125q-1.0 1.546875 -2.890625 2.40625q-1.875 0.859375 -4.21875 0.859375q-2.984375 0 -5.0 -0.859375q-2.0 -0.875 -3.15625 -2.609375q-1.140625 -1.75 -1.203125 -3.953125z" fill-rule="nonzero"/><path fill="#000000" d="m719.92303 171.37082l-1.796875 0.140625q-0.234375 -1.0625 -0.671875 -1.53125q-0.734375 -0.78125 -1.796875 -0.78125q-0.859375 0 -1.5 0.484375q-0.859375 0.625 -1.34375 1.8125q-0.484375 1.1875 -0.5 3.375q0.640625 -0.984375 1.578125 -1.453125q0.9375 -0.484375 1.96875 -0.484375q1.796875 0 3.046875 1.328125q1.265625 1.3125 1.265625 3.40625q0 1.375 -0.59375 2.5625q-0.59375 1.171875 -1.625 1.8125q-1.03125 0.625 -2.359375 0.625q-2.234375 0 -3.65625 -1.640625q-1.421875 -1.65625 -1.421875 -5.453125q0 -4.25 1.5625 -6.171875q1.375 -1.671875 3.6875 -1.671875q1.734375 0 2.828125 0.96875q1.109375 0.96875 1.328125 2.671875zm-7.34375 6.3125q0 0.921875 0.390625 1.78125q0.40625 0.84375 1.109375 1.28125q0.71875 0.4375 1.484375 0.4375q1.140625 0 1.953125 -0.90625q0.828125 -0.921875 0.828125 -2.5q0 -1.515625 -0.8125 -2.390625q-0.8125 -0.875 -2.03125 -0.875q-1.21875 0 -2.078125 0.875q-0.84375 0.875 -0.84375 2.296875z" fill-rule="nonzero"/><path fill="#000000" d="m723.8988 170.9177l0 -3.0625l3.078125 0l0 3.0625l-3.078125 0z" fill-rule="nonzero"/><path fill="#000000" fill-opacity="0.0" d="m134.40945 308.43832l618.3622 0l0 56.566925l-618.3622 0z" fill-rule="evenodd"/><path fill="#000000" d="m158.84695 344.28458l0 2.59375l-14.515625 0q-0.03125 -0.96875 0.328125 -1.875q0.546875 -1.484375 1.765625 -2.921875q1.21875 -1.4375 3.53125 -3.3125q3.578125 -2.9375 4.828125 -4.640625q1.265625 -1.71875 1.265625 -3.25q0 -1.609375 -1.15625 -2.703125q-1.140625 -1.09375 -2.984375 -1.09375q-1.9375 0 -3.109375 1.171875q-1.171875 1.15625 -1.1875 3.21875l-2.765625 -0.28125q0.28125 -3.09375 2.140625 -4.71875q1.859375 -1.625 4.984375 -1.625q3.15625 0 5.0 1.75q1.84375 1.75 1.84375 4.34375q0 1.3125 -0.546875 2.59375q-0.53125 1.265625 -1.78125 2.671875q-1.25 1.40625 -4.15625 3.859375q-2.421875 2.03125 -3.109375 2.765625q-0.6875 0.71875 -1.140625 1.453125l10.765625 0zm4.3932953 2.59375l0 -3.0625l3.078125 0l0 3.0625l-3.078125 0zm20.456451 0l-5.828125 -21.9375l2.984375 0l3.328125 14.375q0.546875 2.265625 0.9375 4.5q0.828125 -3.53125 0.984375 -4.0625l4.171875 -14.8125l3.5 0l3.140625 11.09375q1.1875 4.140625 1.71875 7.78125q0.421875 -2.09375 1.09375 -4.78125l3.4375 -14.09375l2.921875 0l-6.015625 21.9375l-2.796875 0l-4.625 -16.71875q-0.59375 -2.09375 -0.703125 -2.578125q-0.34375 1.515625 -0.640625 2.578125l-4.65625 16.71875l-2.953125 0zm24.74733 0l0 -21.9375l2.703125 0l0 7.859375q1.875 -2.171875 4.75 -2.171875q1.765625 0 3.0625 0.703125q1.3125 0.6875 1.875 1.921875q0.5625 1.21875 0.5625 3.546875l0 10.078125l-2.6875 0l0 -10.078125q0 -2.015625 -0.890625 -2.9375q-0.875 -0.921875 -2.46875 -0.921875q-1.203125 0 -2.265625 0.625q-1.046875 0.625 -1.5 1.6875q-0.4375 1.0625 -0.4375 2.921875l0 8.703125l-2.703125 0zm27.424545 -1.953125q-1.5 1.265625 -2.890625 1.796875q-1.375 0.515625 -2.953125 0.515625q-2.625 0 -4.03125 -1.28125q-1.40625 -1.28125 -1.40625 -3.265625q0 -1.171875 0.53125 -2.140625q0.53125 -0.96875 1.390625 -1.546875q0.859375 -0.578125 1.9375 -0.875q0.796875 -0.21875 2.390625 -0.40625q3.265625 -0.390625 4.8125 -0.9375q0.015625 -0.546875 0.015625 -0.703125q0 -1.640625 -0.765625 -2.3125q-1.03125 -0.921875 -3.0625 -0.921875q-1.90625 0 -2.8125 0.671875q-0.90625 0.671875 -1.34375 2.359375l-2.625 -0.359375q0.359375 -1.6875 1.171875 -2.734375q0.828125 -1.046875 2.375 -1.59375q1.5625 -0.5625 3.609375 -0.5625q2.046875 0 3.3125 0.484375q1.28125 0.46875 1.875 1.203125q0.59375 0.71875 0.84375 1.828125q0.125 0.6875 0.125 2.484375l0 3.59375q0 3.75 0.171875 4.75q0.171875 1.0 0.6875 1.90625l-2.8125 0q-0.421875 -0.84375 -0.546875 -1.953125zm-0.21875 -6.03125q-1.46875 0.609375 -4.40625 1.03125q-1.65625 0.234375 -2.34375 0.53125q-0.6875 0.296875 -1.0625 0.875q-0.375 0.578125 -0.375 1.28125q0 1.078125 0.8125 1.796875q0.8125 0.71875 2.390625 0.71875q1.546875 0 2.765625 -0.671875q1.21875 -0.6875 1.78125 -1.875q0.4375 -0.90625 0.4375 -2.6875l0 -1.0zm12.78392 5.578125l0.390625 2.375q-1.140625 0.234375 -2.046875 0.234375q-1.453125 0 -2.265625 -0.453125q-0.8125 -0.46875 -1.140625 -1.21875q-0.328125 -0.765625 -0.328125 -3.1875l0 -9.140625l-1.984375 0l0 -2.09375l1.984375 0l0 -3.9375l2.671875 -1.625l0 5.5625l2.71875 0l0 2.09375l-2.71875 0l0 9.296875q0 1.140625 0.140625 1.484375q0.15625 0.328125 0.46875 0.515625q0.328125 0.1875 0.921875 0.1875q0.453125 0 1.1875 -0.09375zm11.159576 -16.4375l0 -3.09375l2.703125 0l0 3.09375l-2.703125 0zm0 18.84375l0 -15.890625l2.703125 0l0 15.890625l-2.703125 0zm5.7170715 -4.75l2.671875 -0.421875q0.21875 1.609375 1.234375 2.46875q1.03125 0.84375 2.875 0.84375q1.859375 0 2.75 -0.75q0.90625 -0.765625 0.90625 -1.78125q0 -0.90625 -0.796875 -1.4375q-0.546875 -0.359375 -2.75 -0.90625q-2.96875 -0.75 -4.109375 -1.296875q-1.140625 -0.546875 -1.734375 -1.515625q-0.59375 -0.96875 -0.59375 -2.125q0 -1.0625 0.484375 -1.96875q0.484375 -0.90625 1.328125 -1.515625q0.625 -0.453125 1.703125 -0.765625q1.09375 -0.328125 2.34375 -0.328125q1.859375 0 3.265625 0.546875q1.421875 0.53125 2.09375 1.453125q0.6875 0.90625 0.9375 2.453125l-2.640625 0.359375q-0.171875 -1.21875 -1.03125 -1.90625q-0.859375 -0.703125 -2.4375 -0.703125q-1.859375 0 -2.65625 0.625q-0.78125 0.609375 -0.78125 1.4375q0 0.515625 0.328125 0.9375q0.328125 0.4375 1.03125 0.71875q0.40625 0.15625 2.375 0.6875q2.859375 0.765625 3.984375 1.25q1.140625 0.484375 1.78125 1.421875q0.640625 0.921875 0.640625 2.296875q0 1.34375 -0.78125 2.546875q-0.78125 1.1875 -2.265625 1.84375q-1.484375 0.640625 -3.359375 0.640625q-3.09375 0 -4.71875 -1.28125q-1.625 -1.296875 -2.078125 -3.828125zm24.282928 -2.296875l2.734375 -0.25q0.203125 1.65625 0.90625 2.71875q0.71875 1.046875 2.21875 1.703125q1.5 0.640625 3.359375 0.640625q1.671875 0 2.9375 -0.484375q1.265625 -0.5 1.890625 -1.359375q0.625 -0.859375 0.625 -1.875q0 -1.03125 -0.609375 -1.796875q-0.59375 -0.78125 -1.96875 -1.3125q-0.875 -0.34375 -3.90625 -1.0625q-3.015625 -0.734375 -4.234375 -1.375q-1.578125 -0.8125 -2.34375 -2.03125q-0.765625 -1.234375 -0.765625 -2.734375q0 -1.671875 0.9375 -3.109375q0.9375 -1.453125 2.75 -2.1875q1.8125 -0.75 4.03125 -0.75q2.4375 0 4.296875 0.78125q1.875 0.78125 2.875 2.3125q1.0 1.53125 1.078125 3.453125l-2.78125 0.21875q-0.234375 -2.09375 -1.53125 -3.15625q-1.28125 -1.0625 -3.8125 -1.0625q-2.640625 0 -3.84375 0.96875q-1.203125 0.96875 -1.203125 2.328125q0 1.1875 0.859375 1.953125q0.828125 0.765625 4.359375 1.5625q3.546875 0.796875 4.875 1.390625q1.90625 0.890625 2.8125 2.25q0.921875 1.34375 0.921875 3.109375q0 1.75 -1.0 3.3125q-1.0 1.546875 -2.890625 2.40625q-1.875 0.859375 -4.21875 0.859375q-2.984375 0 -5.0 -0.859375q-2.0 -0.875 -3.15625 -2.609375q-1.140625 -1.75 -1.203125 -3.953125z" fill-rule="nonzero"/><path fill="#000000" d="m315.27518 358.37833l0 -3.5l-6.34375 0l0 -1.65625l6.671875 -9.46875l1.46875 0l0 9.46875l1.96875 0l0 1.65625l-1.96875 0l0 3.5l-1.796875 0zm0 -5.15625l0 -6.59375l-4.578125 6.59375l4.578125 0z" fill-rule="nonzero"/><path fill="#000000" d="m324.4228 346.87833l-2.03125 0l0 -9.296875q0 -3.90625 0.109375 -4.9375q0.1875 -1.875 0.6875 -3.078125q0.515625 -1.21875 1.625 -2.375q1.109375 -1.171875 2.75 -1.90625q1.640625 -0.734375 3.5 -0.734375q1.78125 0 3.390625 0.703125q1.609375 0.6875 2.796875 1.890625q1.203125 1.1875 1.71875 2.53125q0.515625 1.34375 0.6875 3.375q0.0625 0.78125 0.0625 4.53125l0 9.296875l-2.015625 0l0 -9.40625q0 -3.390625 -0.078125 -4.328125q-0.15625 -1.71875 -0.5625 -2.71875q-0.390625 -1.015625 -1.21875 -1.890625q-0.828125 -0.890625 -2.125 -1.453125q-1.296875 -0.578125 -2.671875 -0.578125q-1.375 0 -2.71875 0.609375q-1.34375 0.59375 -2.21875 1.578125q-0.859375 0.96875 -1.203125 2.140625q-0.34375 1.171875 -0.4375 2.71875q-0.046875 0.8125 -0.046875 3.921875l0 9.40625zm19.018555 -7.046875l2.734375 -0.25q0.203125 1.65625 0.90625 2.71875q0.71875 1.046875 2.21875 1.703125q1.5 0.640625 3.359375 0.640625q1.671875 0 2.9375 -0.484375q1.265625 -0.5 1.890625 -1.359375q0.625 -0.859375 0.625 -1.875q0 -1.03125 -0.609375 -1.796875q-0.59375 -0.78125 -1.96875 -1.3125q-0.875 -0.34375 -3.90625 -1.0625q-3.015625 -0.734375 -4.234375 -1.375q-1.578125 -0.8125 -2.34375 -2.03125q-0.765625 -1.234375 -0.765625 -2.734375q0 -1.671875 0.9375 -3.109375q0.9375 -1.453125 2.75 -2.1875q1.8125 -0.75 4.03125 -0.75q2.4375 0 4.296875 0.78125q1.875 0.78125 2.875 2.3125q1.0 1.53125 1.078125 3.453125l-2.78125 0.21875q-0.234375 -2.09375 -1.53125 -3.15625q-1.28125 -1.0625 -3.8125 -1.0625q-2.640625 0 -3.84375 0.96875q-1.203125 0.96875 -1.203125 2.328125q0 1.1875 0.859375 1.953125q0.828125 0.765625 4.359375 1.5625q3.546875 0.796875 4.875 1.390625q1.90625 0.890625 2.8125 2.25q0.921875 1.34375 0.921875 3.109375q0 1.75 -1.0 3.3125q-1.0 1.546875 -2.890625 2.40625q-1.875 0.859375 -4.21875 0.859375q-2.984375 0 -5.0 -0.859375q-2.0 -0.875 -3.15625 -2.609375q-1.140625 -1.75 -1.203125 -3.953125z" fill-rule="nonzero"/><path fill="#000000" d="m372.6857 347.33145l-1.796875 0.140625q-0.234375 -1.0625 -0.671875 -1.53125q-0.734375 -0.78125 -1.796875 -0.78125q-0.859375 0 -1.5 0.484375q-0.859375 0.625 -1.34375 1.8125q-0.484375 1.1875 -0.5 3.375q0.640625 -0.984375 1.578125 -1.453125q0.9375 -0.484375 1.96875 -0.484375q1.796875 0 3.046875 1.328125q1.265625 1.3125 1.265625 3.40625q0 1.375 -0.59375 2.5625q-0.59375 1.171875 -1.625 1.8125q-1.03125 0.625 -2.359375 0.625q-2.234375 0 -3.65625 -1.640625q-1.421875 -1.65625 -1.421875 -5.453125q0 -4.25 1.5625 -6.171875q1.375 -1.671875 3.6875 -1.671875q1.734375 0 2.828125 0.96875q1.109375 0.96875 1.328125 2.671875zm-7.34375 6.3125q0 0.921875 0.390625 1.78125q0.40625 0.84375 1.109375 1.28125q0.71875 0.4375 1.484375 0.4375q1.140625 0 1.953125 -0.90625q0.828125 -0.921875 0.828125 -2.5q0 -1.515625 -0.8125 -2.390625q-0.8125 -0.875 -2.03125 -0.875q-1.21875 0 -2.078125 0.875q-0.84375 0.875 -0.84375 2.296875z" fill-rule="nonzero"/><path fill="#000000" d="m380.9427 341.47208q-0.015625 -0.53125 -0.015625 -0.8125q0 -1.578125 0.453125 -2.734375q0.328125 -0.859375 1.0625 -1.75q0.53125 -0.640625 1.9375 -1.875q1.40625 -1.234375 1.8125 -1.96875q0.421875 -0.734375 0.421875 -1.609375q0 -1.5625 -1.234375 -2.75q-1.21875 -1.203125 -3.0 -1.203125q-1.71875 0 -2.875 1.078125q-1.15625 1.078125 -1.515625 3.375l-2.765625 -0.328125q0.375 -3.078125 2.21875 -4.703125q1.859375 -1.625 4.890625 -1.625q3.21875 0 5.125 1.75q1.921875 1.75 1.921875 4.234375q0 1.4375 -0.671875 2.65625q-0.671875 1.203125 -2.625 2.9375q-1.328125 1.171875 -1.734375 1.734375q-0.390625 0.546875 -0.59375 1.265625q-0.1875 0.71875 -0.21875 2.328125l-2.59375 0zm-0.15625 5.40625l0 -3.0625l3.0625 0l0 3.0625l-3.0625 0z" fill-rule="nonzero"/></g></svg>